<svg width="105" height="16" viewBox="0 0 105 16" fill="none" xmlns="http://www.w3.org/2000/svg">
<g clip-path="url(#clip0_236_76646)">
<path d="M2.5771 9.36794L9.43513 15.7313H13.2214L4.8855 8.00001L13.2214 0.268707H9.43513L2.5771 6.63207V0.268707H0V15.7313H2.5771V9.36794Z" fill="#3D3935"/>
<path d="M102.602 2.571C101.161 1.01375 99.1636 0.0916103 97.0384 0.00611414C94.9132 -0.079382 92.8552 0.683977 91.2918 2.1252C89.7346 3.56642 88.8124 5.56337 88.7269 7.68856C88.6414 9.81375 89.4048 11.8718 90.846 13.4351C92.2873 14.9924 94.2842 15.9145 96.4094 16C98.5346 16.0855 100.593 15.3221 102.156 13.8809C103.713 12.4397 104.635 10.4428 104.721 8.31756C104.806 6.19237 104.043 4.13436 102.602 2.571ZM102.144 8.21375C102.089 9.65497 101.466 11.0046 100.403 11.9817C99.3468 12.9588 97.9483 13.4779 96.5071 13.4168C95.0659 13.3618 93.7163 12.7389 92.7392 11.6763C91.7621 10.6199 91.243 9.22138 91.304 7.78016C91.359 6.33894 91.9819 4.98932 93.0445 4.01222C94.101 3.03512 95.4995 2.51604 96.9407 2.57711C98.3819 2.63207 99.7315 3.25497 100.709 4.31756C101.686 5.37405 102.205 6.77253 102.144 8.21375Z" fill="#3D3935"/>
<path d="M79.8474 0.201538H77.4352L70.6138 15.6641H73.429L74.5894 13.0321H82.6993L83.8596 15.6641H86.6749L79.8474 0.201538ZM75.7252 10.455L78.6382 3.84734L81.5512 10.455H75.7191H75.7252Z" fill="#3D3935"/>
<path d="M61.4413 0.274811C59.2734 0.274811 57.0993 0.274811 54.9314 0.274811V15.7313H61.8566C61.8566 15.7313 61.8749 15.7313 61.8871 15.7313C65.7039 15.1878 68.5803 11.8779 68.5803 8.03054C68.5803 4.18321 65.4474 0.604582 61.4413 0.274811ZM61.2032 13.2153H57.5024V2.80306H60.794C63.6703 2.80306 66.0093 5.14199 66.0093 8.01832C66.0093 10.7298 63.878 13.0015 61.2032 13.2092V13.2153Z" fill="#3D3935"/>
<path d="M48.0672 0.268707V11.6031L39.0046 0.268707H36.4336V15.7313H39.0046V4.39695L48.0733 15.7313H50.6443V0.268707H48.0672Z" fill="#3D3935"/>
<path d="M25.3191 0.268707H22.9068L16.0854 15.7313H18.9007L20.061 13.0992H28.171L29.3313 15.7313H32.1465L25.3191 0.268707ZM21.1969 10.5221L24.1099 3.91451L27.029 10.5221H21.1969Z" fill="#3D3935"/>
</g>
<defs>
<clipPath id="clip0_236_76646">
<rect width="104.727" height="16" fill="white"/>
</clipPath>
</defs>
</svg>
